<?xml version="1.0" standalone="no"?>
<!DOCTYPE svg PUBLIC "-//W3C//DTD SVG 20010904//EN"
 "http://www.w3.org/TR/2001/REC-SVG-20010904/DTD/svg10.dtd">
<svg version="1.0" xmlns="http://www.w3.org/2000/svg"
 width="1555.000000pt" height="2000.000000pt" viewBox="0 0 1555.000000 2000.000000"
 preserveAspectRatio="xMidYMid meet">

<g transform="translate(0.000000,2000.000000) scale(0.100000,-0.100000)"
fill="#000000" stroke="none">
<path d="M4645 16509 c-308 -21 -619 -88 -920 -198 -152 -56 -583 -265 -592
-287 -5 -13 42 -104 53 -104 3 0 59 30 125 66 385 211 831 351 1253 393 157
16 479 14 631 -4 913 -106 1659 -622 1884 -1303 113 -341 119 -743 21 -1319
-113 -658 -298 -1327 -511 -1843 -28 -69 -61 -152 -74 -186 -112 -298 -401
-850 -833 -1592 -380 -651 -475 -849 -513 -1066 -39 -230 69 -422 276 -491 99
-33 155 -37 505 -40 318 -2 365 -4 453 -23 538 -116 759 -608 641 -1426 -8
-60 -12 -112 -7 -116 4 -4 29 -11 55 -14 55 -8 51 -15 74 134 24 164 30 519
10 663 -54 387 -224 650 -513 796 -161 81 -324 105 -678 103 -398 -3 -521 17
-611 100 -65 60 -88 116 -88 218 0 206 84 391 514 1130 370 636 576 1020 725
1350 26 58 66 143 87 190 94 200 261 654 348 945 143 484 279 1136 321 1545
16 152 16 481 0 600 -56 428 -199 730 -491 1033 -500 522 -1312 804 -2145 746z"/>
<path d="M8718 16340 c-356 -65 -703 -364 -907 -783 -67 -139 -135 -342 -160
-482 -53 -299 -30 -702 52 -886 55 -124 161 -178 255 -130 89 46 152 140 313
471 146 298 239 462 334 589 127 169 250 276 396 345 115 55 187 70 304 63
183 -11 586 -94 1730 -358 257 -60 276 -63 405 -63 134 -1 136 -1 202 32 76
37 121 84 162 168 94 193 60 474 -76 630 -76 87 -205 142 -388 167 -119 17
-174 20 -620 37 -619 25 -923 57 -1569 165 -221 38 -359 49 -433 35z m477
-169 c564 -98 958 -137 1640 -161 317 -11 483 -23 568 -41 71 -15 165 -59 208
-97 141 -124 161 -446 36 -576 -32 -33 -57 -48 -101 -61 -97 -28 -110 -26
-706 111 -245 57 -872 194 -1090 239 -271 56 -359 69 -485 69 -106 1 -130 -3
-205 -28 -163 -54 -290 -138 -430 -283 -164 -169 -257 -317 -479 -767 -122
-247 -169 -332 -203 -369 -39 -41 -48 -46 -69 -39 -86 31 -133 253 -126 587 4
226 22 337 83 522 105 319 285 585 508 754 95 73 234 144 330 170 101 27 236
20 521 -30z"/>
<path d="M9505 14780 c-142 -30 -291 -130 -380 -254 -222 -311 -161 -576 168
-736 117 -56 223 -93 346 -121 134 -29 121 -36 181 104 88 204 330 741 346
764 50 78 -35 153 -249 220 -69 21 -106 26 -227 29 -80 1 -163 -1 -185 -6z
m355 -140 c103 -29 182 -62 176 -74 -2 -6 -52 -117 -111 -246 -59 -129 -134
-298 -167 -375 -33 -77 -64 -144 -69 -149 -10 -11 -171 33 -271 75 -139 57
-225 118 -267 189 -21 37 -26 57 -26 115 1 88 23 154 84 247 80 123 192 203
325 234 81 18 230 11 326 -16z"/>
<path d="M13171 14145 c-147 -32 -322 -113 -438 -202 -76 -57 -258 -236 -258
-252 0 -5 20 -25 44 -44 l44 -35 96 97 c206 208 407 315 621 328 160 10 276
-29 386 -129 129 -118 219 -292 283 -549 111 -439 99 -868 -35 -1268 -35 -104
-132 -299 -196 -396 -66 -100 -250 -286 -345 -350 l-72 -48 -113 56 c-141 70
-235 97 -364 104 -115 7 -176 -4 -271 -49 -85 -40 -198 -148 -263 -251 -29
-45 -78 -120 -109 -167 -367 -549 -546 -1743 -436 -2897 70 -730 239 -1263
472 -1484 172 -165 365 -166 608 -4 357 237 799 824 1353 1797 140 245 181
361 229 653 27 165 24 547 -5 705 -59 319 -171 575 -366 834 -105 140 -408
454 -538 558 -49 38 -88 71 -88 73 0 1 35 29 77 60 366 276 606 761 654 1320
29 341 -50 819 -181 1092 -76 159 -135 240 -241 325 -149 119 -352 165 -548
123z m-245 -2935 c67 -34 76 -45 47 -54 -54 -16 -157 -35 -218 -41 -38 -3 -80
-8 -92 -11 -33 -6 -29 15 11 68 66 86 135 97 252 38z m-396 -45 c0 -4 -7 -19
-15 -35 -12 -24 -22 -30 -48 -30 l-32 1 39 34 c37 33 56 43 56 30z m760 -69
c119 -62 308 -205 397 -299 146 -154 272 -423 320 -680 22 -116 25 -464 5
-577 -38 -215 -62 -273 -260 -640 -285 -527 -530 -898 -751 -1134 -67 -71
-192 -161 -258 -186 -75 -28 -136 -23 -200 16 -311 192 -525 1252 -463 2284
30 495 155 1014 276 1147 l35 38 -5 -37 c-4 -36 -4 -37 32 -40 27 -2 36 -7 33
-18 -2 -8 -12 -46 -22 -85 -58 -218 -89 -517 -96 -920 -15 -858 100 -1611 283
-1851 39 -50 101 -84 155 -84 117 0 231 124 374 405 152 297 404 964 440 1165
22 124 32 473 16 606 -40 336 -150 616 -337 855 -41 52 -54 75 -36 67 4 -2 32
-16 62 -32z m-149 -73 c95 -107 199 -288 253 -438 64 -182 87 -319 93 -565 8
-334 -9 -424 -157 -830 -241 -661 -446 -1040 -561 -1040 -120 0 -242 456 -301
1130 -20 227 -17 945 5 1137 25 222 60 408 98 529 10 31 11 31 95 38 123 10
248 32 339 59 44 14 83 25 87 26 3 0 25 -20 49 -46z m1013 -858 c101 -231 145
-428 153 -696 8 -252 -16 -455 -84 -694 -29 -103 -72 -188 -258 -505 -615
-1046 -1084 -1599 -1410 -1659 -33 -6 -75 -8 -95 -5 -303 55 -538 708 -611
1699 -15 205 -15 755 0 950 22 294 55 541 101 760 33 158 32 171 9 -180 -14
-208 -6 -678 16 -895 79 -803 266 -1320 528 -1461 56 -30 70 -33 148 -34 84 0
90 1 183 49 243 123 536 486 884 1097 202 356 340 631 367 731 72 275 83 591
29 856 -8 40 -18 80 -21 89 -4 10 -2 14 4 10 6 -4 32 -54 57 -112z"/>
<path d="M12395 13548 c-2 -7 -27 -123 -55 -258 -215 -1028 -489 -2146 -755
-3075 -844 -2948 -1908 -5312 -2785 -6185 -172 -172 -310 -265 -628 -424 -480
-240 -957 -380 -1474 -433 -147 -15 -191 -15 -337 -5 -186 13 -468 58 -603 96
l-87 24 -16 -55 c-9 -30 -15 -57 -13 -59 7 -7 207 -54 333 -78 417 -80 760
-70 1230 34 164 37 267 66 475 137 211 71 349 130 585 252 223 114 347 190
453 275 553 445 1237 1600 1891 3197 641 1565 1272 3640 1722 5659 108 484
189 872 184 880 -3 4 -22 11 -42 14 -21 4 -46 9 -56 12 -9 3 -19 -1 -22 -8z"/>
<path d="M8372 7115 c-281 -43 -495 -124 -672 -255 -41 -31 -131 -110 -200
-176 -69 -66 -148 -134 -175 -150 -44 -26 -60 -29 -130 -29 -68 0 -89 4 -140
30 -75 36 -230 191 -295 293 -36 56 -50 71 -70 71 -22 1 -1789 -272 -1848
-284 -17 -4 -21 -11 -18 -28 3 -12 7 -38 11 -58 l5 -36 113 19 c61 10 459 72
882 138 424 66 780 122 791 125 17 4 33 -11 85 -82 188 -253 404 -359 601
-292 83 28 132 63 268 194 233 222 379 306 642 370 287 69 640 52 776 -38 41
-28 47 -37 50 -71 4 -50 -9 -83 -74 -181 -60 -91 -245 -278 -369 -371 -592
-447 -1292 -680 -1906 -635 -209 15 -337 36 -515 82 -372 96 -778 289 -1090
520 l-53 39 -37 -46 -38 -46 25 -19 c132 -104 438 -283 644 -377 859 -392
1727 -364 2570 83 276 146 492 302 686 495 381 380 375 610 -21 701 -115 27
-370 34 -498 14z"/>
</g>
</svg>
